<?xml version="1.0"?>
<svg xmlns="http://www.w3.org/2000/svg" id="Layer_1" data-name="Layer 1" viewBox="0 0 512 512" width="512" height="512"><title>b1</title><path d="M447.249,197.572a6,6,0,0,0-10.035,0l-53.769,81.984a6.137,6.137,0,0,0-.261,6.217A6.07,6.07,0,0,0,388.463,289H434.33a188.122,188.122,0,0,1-64.314,117.562c-33.183,28.453-74.868,44.732-114.366,44.732-25.76,0-52.695-6.963-77.89-20.1a193.6,193.6,0,0,1-66.346-56.918,6,6,0,1,0-9.682,7.083,205.618,205.618,0,0,0,70.48,60.458c26.9,14.026,55.754,21.439,83.438,21.439,42.321,0,86.852-17.295,122.176-47.584A201.5,201.5,0,0,0,446.432,289H496a6.1,6.1,0,0,0,5.018-9.406Z"/><path d="M69.769,317.138a6,6,0,0,0,5.017-2.71l53.769-81.984a6.137,6.137,0,0,0,.261-6.217A6.07,6.07,0,0,0,123.537,223H77.67a188.122,188.122,0,0,1,64.314-117.562c33.183-28.453,74.868-44.732,114.366-44.732,25.76,0,52.695,6.963,77.89,20.1a193.6,193.6,0,0,1,66.346,56.918,6,6,0,1,0,9.682-7.083,205.618,205.618,0,0,0-70.48-60.458c-26.9-14.026-55.754-21.439-83.438-21.439-42.321,0-86.852,17.3-122.176,47.584A201.5,201.5,0,0,0,65.568,223H16a6.1,6.1,0,0,0-5.018,9.406l53.769,82A6.017,6.017,0,0,0,69.769,317.138Z"/><path d="M240,276.75v16.683L255.971,304.2,272,293.4V276.664a68.578,68.578,0,0,1-16.195,1.9A69.272,69.272,0,0,1,240,276.75Z"/><path d="M301,387V337.171c0-.166.061-.333.074-.5a41.4,41.4,0,0,1,12.644-26.306l-14.99-5.414L281.06,328.52a5.993,5.993,0,0,1-8.123,1.392l-1.03-.887L281.764,387Z"/><path d="M231.357,387l10.025-58.835-2.32,1.647a6.041,6.041,0,0,1-3.325,1.058,5.965,5.965,0,0,1-4.8-2.376L213.259,304.94l-15,5.421a41.436,41.436,0,0,1,12.671,26.309c.013.165.074.335.074.5V387Z"/><polygon points="270.479 392.634 258.188 320.078 256 318.62 255.106 319.216 242.64 392.635 256.56 411.193 270.479 392.634"/><path d="M340,337.433a29.389,29.389,0,0,0-13.5-21.951A29.9,29.9,0,0,0,313,337.433V387h27Z"/><polygon points="291 295.898 291 295.599 267.051 311.409 275.223 316.779 291 295.898"/><path d="M288.719,146.7a6,6,0,0,1,3.8-.5,29.945,29.945,0,0,1,24.044,27.377l.026.395,1.647-1.274,1.152-8.038a63.573,63.573,0,0,0-79.916-65.68,72.971,72.971,0,0,0-12.8,5.278q-1.262.613-2.532,1.225C217.761,108.541,201,116.2,186.5,121.666a23.962,23.962,0,0,0,7.722,2.629c8.908,1.395,18.405,6.452,28.46,11.806C242.357,146.579,264.665,158.457,288.719,146.7Z"/><path d="M192.281,164.654l1.226,8.381,5.216,3.568a94.116,94.116,0,0,1,9.389-34.561,79.076,79.076,0,0,0-11.555-4.893A63.892,63.892,0,0,0,192.281,164.654Z"/><path d="M172,337.433V387h27V337.433a29.9,29.9,0,0,0-13.5-21.951A29.389,29.389,0,0,0,172,337.433Z"/><path d="M182.4,187.493a10.776,10.776,0,0,0,4.573,11.59c.78.354,2.927,1.227,3.918,1.574a6,6,0,0,1,5.063,5.928,60.022,60.022,0,0,0,120.043.1v-.106a5.871,5.871,0,0,1,4.805-5.908,10.679,10.679,0,0,0,8.8-10.6,10.889,10.889,0,0,0-.346-2.577,6.484,6.484,0,0,0-4.4-4.724l-9.834,7.592a6.007,6.007,0,0,1-9.665-4.354l-.766-11.639a17.935,17.935,0,0,0-12.614-15.944,58.126,58.126,0,0,1-24.066,5.225c-18.3,0-34.862-8.445-49.155-16.042l-.028.04a82,82,0,0,0-8.248,36.912l.043,3.2a6,6,0,0,1-9.385,5.034l-14.552-9.952A6.443,6.443,0,0,0,182.4,187.493Z"/><polygon points="221 295.599 221 295.898 236.895 316.779 244.833 311.409 221 295.599"/></svg>
